HIERARCHY
ROOT Hips
{
	OFFSET	0.00	0.00	0.00
	CHANNELS 6 Xposition Yposition Zposition Zrotation Xrotation Yrotation
	JOINT LeftUpLeg
	{
		OFFSET	 0.126116	-0.014019	-0.065224
		CHANNELS 3 Zrotation Xrotation Yrotation
		JOINT LeftLeg
		{
			OFFSET	 0.000000	 0.000000	 0.569914
			CHANNELS 3 Zrotation Xrotation Yrotation
			JOINT LeftFoot
			{
				OFFSET	 0.000000	 0.000000	 0.544423
				CHANNELS 3 Zrotation Xrotation Yrotation
				JOINT LeftToeBase
				{
					OFFSET	 0.000000	 0.000000	 0.207117
					CHANNELS 3 Zrotation Xrotation Yrotation
					End Site
					{
						OFFSET	 0.000000	 0.000000	 0.207117
					}
				}
			}
		}
	}
	JOINT RightUpLeg
	{
		OFFSET	-0.124023	-0.008373	-0.065224
		CHANNELS 3 Zrotation Xrotation Yrotation
		JOINT RightLeg
		{
			OFFSET	 0.000000	 0.000000	 0.570047
			CHANNELS 3 Zrotation Xrotation Yrotation
			JOINT RightFoot
			{
				OFFSET	 0.000000	 0.000000	 0.544354
				CHANNELS 3 Zrotation Xrotation Yrotation
				JOINT RightToeBase
				{
					OFFSET	 0.000000	 0.000000	 0.207540
					CHANNELS 3 Zrotation Xrotation Yrotation
					End Site
					{
						OFFSET	 0.000000	 0.000000	 0.207540
					}
				}
			}
		}
	}
	JOINT Spine
	{
		OFFSET	 0.000184	-0.007763	 0.117403
		CHANNELS 3 Zrotation Xrotation Yrotation
		JOINT Spine1
		{
			OFFSET	 0.000000	 0.000000	 0.137269
			CHANNELS 3 Zrotation Xrotation Yrotation
			JOINT Spine2
			{
				OFFSET	 0.000000	 0.000000	 0.156879
				CHANNELS 3 Zrotation Xrotation Yrotation
				JOINT LeftShoulder
				{
					OFFSET	 0.080501	-0.002496	 0.160144
					CHANNELS 3 Zrotation Xrotation Yrotation
					JOINT LeftArm
					{
						OFFSET	 0.000000	 0.000000	 0.164363
						CHANNELS 3 Zrotation Xrotation Yrotation
						JOINT LeftForeArm
						{
							OFFSET	 0.000000	 0.000000	 0.364576
							CHANNELS 3 Zrotation Xrotation Yrotation
							JOINT LeftHand
							{
								OFFSET	 0.000000	 0.000000	 0.360812
								CHANNELS 3 Zrotation Xrotation Yrotation
								JOINT LeftHandIndex1
								{
									OFFSET	 0.000000	 0.000000	 0.086006
									CHANNELS 3 Zrotation Xrotation Yrotation
									JOINT LeftHandIndex2
									{
										OFFSET	 0.000000	 0.000000	 0.047236
										CHANNELS 3 Zrotation Xrotation Yrotation
										JOINT LeftHandIndex3
										{
											OFFSET	-0.004284	-0.000551	 0.038166
											CHANNELS 3 Zrotation Xrotation Yrotation
											End Site
											{
												OFFSET	-0.004284	-0.000551	 0.038166
											}
										}
									}
								}
							}
						}
					}
				}
				JOINT Neck
				{
					OFFSET	 0.000000	 0.000000	 0.176489
					CHANNELS 3 Zrotation Xrotation Yrotation
					JOINT Head
					{
						OFFSET	 0.000000	-0.001747	 0.077940
						CHANNELS 3 Zrotation Xrotation Yrotation
						End Site
						{
							OFFSET	 0.000000	-0.001747	 0.077940
						}
					}
				}
				JOINT RightShoulder
				{
					OFFSET	-0.080363	 0.000306	 0.159706
					CHANNELS 3 Zrotation Xrotation Yrotation
					JOINT RightArm
					{
						OFFSET	 0.000000	 0.000000	 0.164196
						CHANNELS 3 Zrotation Xrotation Yrotation
						JOINT RightForeArm
						{
							OFFSET	 0.000000	 0.000000	 0.365611
							CHANNELS 3 Zrotation Xrotation Yrotation
							JOINT RightHand
							{
								OFFSET	 0.000000	 0.000000	 0.360648
								CHANNELS 3 Zrotation Xrotation Yrotation
								JOINT RightHandIndex1
								{
									OFFSET	 0.000000	 0.000000	 0.069977
									CHANNELS 3 Zrotation Xrotation Yrotation
									JOINT RightHandIndex2
									{
										OFFSET	 0.000000	 0.000000	 0.052305
										CHANNELS 3 Zrotation Xrotation Yrotation
										JOINT RightHandIndex3
										{
											OFFSET	 0.009002	-0.000782	 0.042196
											CHANNELS 3 Zrotation Xrotation Yrotation
											End Site
											{
												OFFSET	 0.009002	-0.000782	 0.042196
											}
										}
									}
								}
							}
						}
					}
				}
			}
		}
	}
}
MOTION
Frames:    8
Frame Time: 0.03333334
 2.861727	 6.803954	-0.260292	-83.388340	-1.905856	-0.310180	 6.139961	 0.153151	-177.833100	-2.862843	-33.556430	 1.006523	 65.292470	 89.960430	-64.602400	-2.376497	 30.363420	-0.041853	 1.866597	-31.565650	 179.643300	 16.317340	-68.588980	 19.579350	-177.762100	 88.785500	-174.711400	 2.377780	 29.832260	 0.031534	 23.812230	 4.893293	 1.985548	-13.597290	-0.481746	 0.429444	-14.869450	-2.498853	-1.312978	-91.782650	 78.400010	 178.831600	 35.333120	 62.758160	-48.226330	-25.108700	 9.837392	-40.431980	 37.340130	-4.724016	-3.307243	-3.812334	 37.924440	-2.927599	-2.450526	 36.184240	 0.754587	-1.378229	 35.397820	-2.634230	-0.341972	 4.113819	-2.184931	-3.264514	-12.248620	-2.251852	 89.787160	 78.429560	 179.482300	-41.707640	 71.438190	 43.237910	 18.976030	 5.548122	 37.452990	-46.336050	-7.967659	 6.237594	 6.437017	 35.671460	-0.771858	 2.830251	 35.756010	-7.813440	-2.350882	 35.473990	 5.254307
 2.780724	 6.790790	-0.263630	-83.100430	-1.214334	-0.873769	 6.305117	 7.777506	-177.003000	-3.496141	-24.942630	 1.122006	 7.552413	 88.825640	-6.524888	-2.367574	 31.915000	-0.076739	 2.301550	-34.739850	 179.719000	 9.540283	-55.838230	 11.770330	-155.877800	 89.418180	 163.998000	 2.385513	 28.194520	-0.004201	 19.038140	 4.597388	 2.631248	-13.578990	-0.508892	 0.375054	-14.735030	-2.483280	-1.298978	-91.759610	 78.826220	 178.755500	 34.607650	 61.055150	-49.846520	-21.494210	 6.686087	-40.747780	 42.692090	-5.026337	-2.830317	-3.812334	 37.924440	-2.927599	-2.450526	 36.184240	 0.754587	-1.378229	 35.397820	-2.634230	-0.336403	 4.341696	-2.785699	-3.128345	-12.664490	-2.149549	 89.777530	 78.006830	 179.449100	-41.539470	 71.728200	 42.339120	 15.849780	 2.322095	 36.214670	-51.645890	-8.526949	 5.447902	 6.437017	 35.671460	-0.771858	 2.830251	 35.756010	-7.813440	-2.350882	 35.473990	 5.254307
 2.731176	 6.783346	-0.265512	-82.938820	-0.780009	-1.073289	 7.614781	 14.743710	-176.803800	-3.930709	-15.010120	 1.493176	 3.710533	 85.352070	-0.870432	-2.354529	 33.864390	-0.121854	 2.756201	-35.460350	 179.717600	 6.985822	-48.267510	 8.795642	-145.175200	 89.592660	 153.317700	 2.388046	 27.588870	-0.017211	 15.859880	 4.302971	 2.804209	-13.439350	-0.585217	 0.385607	-14.562860	-2.462696	-1.281024	-91.754160	 78.919830	 178.744900	 34.334140	 60.488400	-50.545340	-19.571840	 4.718266	-40.081400	 45.471680	-5.157827	-2.580680	-3.812334	 37.924440	-2.927599	-2.450526	 36.184240	 0.754587	-1.378229	 35.397820	-2.634230	-0.233694	 4.405680	-3.043099	-3.017318	-12.742240	-2.092407	 89.775510	 77.914380	 179.456800	-41.402370	 71.986890	 42.101560	 13.920420	 0.383189	 34.438970	-54.641880	-8.787953	 5.011355	 6.437017	 35.671460	-0.771858	 2.830251	 35.756010	-7.813440	-2.350882	 35.473990	 5.254307
 2.660611	 6.775192	-0.268783	-82.440040	-0.830346	-1.292223	 8.284659	 19.929880	-177.161500	-3.857515	-11.615800	 1.600939	 3.835826	 84.145200	 0.151772	-2.317609	 38.168350	-0.227577	 3.266812	-35.760790	 179.765200	 3.812677	-40.014640	 5.573005	-167.432300	 89.262720	 174.623800	 2.374525	 30.449080	 0.045218	 10.562750	 4.221889	 2.844957	-13.270990	-0.695892	 0.409545	-14.269330	-2.484370	-1.257628	-91.754350	 78.906850	 178.710500	 34.640460	 60.264030	-51.810780	-16.723830	 1.770147	-37.912010	 49.155080	-5.312128	-2.246568	-3.812334	 37.924440	-2.927599	-2.450526	 36.184240	 0.754587	-1.378229	 35.397820	-2.634230	-0.114172	 4.298428	-3.245577	-2.801203	-12.569610	-1.815989	 89.774700	 77.923510	 179.375000	-41.065460	 72.481220	 41.903910	 10.766270	-2.286361	 30.625910	-58.824150	-9.090672	 4.425036	 6.437017	 35.671460	-0.771858	 2.830251	 35.756010	-7.813440	-2.350882	 35.473990	 5.254307
 2.576392	 6.767848	-0.271523	-81.718510	-0.979283	-1.246073	 8.513682	 24.048530	-178.663200	-2.660826	-11.588320	 1.791138	 5.106428	 82.662920	-0.113801	-2.260104	 43.014240	-0.359610	 3.062035	-34.615390	 179.417700	 3.016013	-37.371330	 4.607975	 174.539600	 89.334410	-167.919500	 2.369450	 31.345350	 0.065327	 4.180405	 4.202648	 2.453540	-13.138450	-0.760117	 0.333265	-13.994950	-2.550916	-1.241313	-91.762180	 78.761080	 178.651800	 35.770060	 60.865080	-52.910700	-13.305610	-1.278590	-33.871680	 52.630910	-5.422395	-1.957641	-3.812334	 37.924440	-2.927599	-2.450526	 36.184240	 0.754587	-1.378229	 35.397820	-2.634230	-0.105758	 4.163144	-3.236811	-2.614861	-12.191020	-1.255170	 89.778160	 78.070150	 179.298300	-39.731960	 73.203750	 40.494540	 7.032598	-4.648545	 25.975850	-62.699200	-9.325068	 3.882943	 6.437017	 35.671460	-0.771858	 2.830251	 35.756010	-7.813440	-2.350882	 35.473990	 5.254307
 2.488628	 6.762194	-0.274410	-81.095000	-1.282916	-1.028736	 9.154263	 27.831270	 179.268500	-1.440861	-11.556370	 1.989387	 5.775332	 78.259160	 0.484680	-2.172870	 48.270870	-0.524666	 2.530854	-32.852550	 178.580900	 5.332209	-39.916520	 6.192382	 6.908684	 88.215570	 0.861088	 2.383100	 28.735980	 0.007531	-1.959678	 3.493814	 1.933056	-12.865130	-0.760794	 0.149830	-13.671340	-2.510814	-1.207564	-91.765960	 78.689740	 178.578600	 37.085890	 62.199930	-52.796640	-9.775156	-3.590625	-28.895730	 55.186660	-5.493588	-1.745896	-3.812334	 37.924440	-2.927599	-2.450526	 36.184240	 0.754587	-1.378229	 35.397820	-2.634230	-0.021668	 4.353075	-3.258728	-2.429987	-11.796670	-0.491239	 89.780770	 78.154930	 179.361300	-37.475500	 73.812170	 37.584800	 3.123896	-6.228964	 21.516610	-65.499950	-9.470234	 3.483946	 6.437017	 35.671460	-0.771858	 2.830251	 35.756010	-7.813440	-2.350882	 35.473990	 5.254307
 2.401419	 6.756238	-0.274230	-80.297200	-1.952507	-0.797455	 9.972229	 30.997290	 177.184800	-1.453754	-11.197990	 1.921766	 5.354477	 69.526270	 1.348311	-2.119119	 50.793020	-0.614784	 1.690192	-30.872650	 177.623500	 7.096669	-43.726870	 7.521130	 6.368454	 85.082870	 1.572239	 2.395481	 25.515450	-0.061032	-7.979901	 3.077502	 1.296875	-12.554480	-0.729120	-0.007816	-13.273540	-2.396066	-1.158846	-91.777180	 78.511850	 178.532200	 38.257560	 64.118230	-51.589100	-6.198004	-5.325758	-26.422140	 57.068610	-5.546081	-1.583926	-3.812334	 37.924440	-2.927599	-2.450526	 36.184240	 0.754587	-1.378229	 35.397820	-2.634230	 0.104281	 4.510763	-3.099152	-2.211179	-11.203240	 0.087011	 89.785880	 78.342150	 179.365300	-35.173810	 74.135380	 34.576370	-0.795935	-7.262590	 19.834810	-67.287160	-9.556376	 3.207028	 6.437017	 35.671460	-0.771858	 2.830251	 35.756010	-7.813440	-2.350882	 35.473990	 5.254307
 2.311202	 6.756308	-0.265743	-79.323750	-2.497276	-1.431824	 7.535211	 19.067810	 175.964000	-0.873640	-37.971100	 1.850416	 2.980301	 63.130770	 0.397472	-2.195481	 47.071690	-0.484554	 1.156382	-27.619980	 177.487600	 7.361595	-46.768150	 7.843065	 6.115981	 85.028940	 1.252939	 2.405943	 20.566590	-0.161837	-14.998410	 2.662087	 1.768479	-12.233760	-0.657981	 0.093513	-12.820240	-2.067874	-1.082309	-91.764840	 78.696970	 178.492800	 37.738090	 66.874950	-48.080390	-2.262853	-7.361763	-25.502970	 58.757560	-5.581524	-1.467010	-3.812334	 37.924440	-2.927599	-2.450526	 36.184240	 0.754587	-1.378229	 35.397820	-2.634230	 0.230650	 4.217601	-3.404486	-1.953344	-10.023400	 0.393252	 89.780730	 78.154170	 179.343900	-33.873060	 74.088420	 33.026790	-5.667944	-8.690514	 20.230320	-68.510820	-9.600693	 3.033175	 6.437017	 35.671460	-0.771858	 2.830251	 35.756010	-7.813440	-2.350882	 35.473990	 5.254307
